<?xml version="1.0" encoding="UTF-8" standalone="no"?>
<!-- Generator: Adobe Illustrator 20.1.0, SVG Export Plug-In . SVG Version: 6.00 Build 0)  -->

<svg
   version="1.1"
   id="Layer_1"
   x="0px"
   y="0px"
   viewBox="0 0 400 225"
   style="enable-background:new 0 0 400 225;"
   xml:space="preserve"
   sodipodi:docname="icon.svg"
   inkscape:version="1.2.2 (b0a8486541, 2022-12-01)"
   xmlns:inkscape="http://www.inkscape.org/namespaces/inkscape"
   xmlns:sodipodi="http://sodipodi.sourceforge.net/DTD/sodipodi-0.dtd"
   xmlns="http://www.w3.org/2000/svg"
   xmlns:svg="http://www.w3.org/2000/svg"><defs
   id="defs72">
		
		
		
		
		
		
		
		
		
		
		
		
		
		
		
		
		
		
		
		
		
	</defs><sodipodi:namedview
   id="namedview70"
   pagecolor="#ffffff"
   bordercolor="#000000"
   borderopacity="0.25"
   inkscape:showpageshadow="2"
   inkscape:pageopacity="0.0"
   inkscape:pagecheckerboard="0"
   inkscape:deskcolor="#d1d1d1"
   showgrid="false"
   inkscape:zoom="1.4833529"
   inkscape:cx="253.14273"
   inkscape:cy="213.0309"
   inkscape:window-width="1920"
   inkscape:window-height="1129"
   inkscape:window-x="-8"
   inkscape:window-y="-8"
   inkscape:window-maximized="1"
   inkscape:current-layer="Layer_2" />
<style
   type="text/css"
   id="style2">
	.st0{fill:none;}
	.st1{fill:#345EA5;}
	.st2{fill:#DBDBDE;}
	.st3{fill:#FFFFFF;}
	.st4{opacity:0.15;}
	.st5{fill:#9AB7DE;}
	.st6{fill:#3D6083;}
	.st7{opacity:0.1;}
	.st8{fill:#030403;}
	.st9{fill:#B7B7BE;}
	.st10{fill:#46B08D;}
	.st11{fill:#295849;}
</style>
<title
   id="title4">Interactive Book</title>
<g
   id="Layer_2">
	<rect
   y="0"
   class="st0"
   width="400"
   height="225"
   id="rect6"
   x="0" /><path
   class="st1"
   d="m 75.1,30.2 v 144.2 c 0,5.6 4.5,10.1 10.1,10.1 h 87.6 V 20.2 H 85.2 c -5.6,0 -10.1,4.5 -10.1,10 z"
   id="path8"
   style="fill:#aa0000" /><path
   class="st2"
   d="m 172.8,20.2 h 142 c 5.6,0 10.1,4.5 10.1,10.1 v 144.2 c 0,5.6 -4.5,10.1 -10.1,10.1 h -142 z"
   id="path10" /><rect
   x="93.900002"
   y="56.400002"
   class="st3"
   width="39"
   height="5.5"
   id="rect12" /><rect
   x="93.900002"
   y="68.900002"
   class="st3"
   width="58.900002"
   height="5.5"
   id="rect14" /><rect
   x="93.900002"
   y="81.699997"
   class="st3"
   width="45.400002"
   height="5.5"
   id="rect16" /><rect
   x="93.900002"
   y="113.6"
   class="st3"
   width="25.700001"
   height="5.5"
   id="rect18" /><rect
   x="93.900002"
   y="126.8"
   class="st3"
   width="58.900002"
   height="5.5"
   id="rect20" /><rect
   x="93.900002"
   y="139.39999"
   class="st3"
   width="42.299999"
   height="5.5"
   id="rect22" /><rect
   x="187.89999"
   y="33.799999"
   class="st3"
   width="122"
   height="81.5"
   id="rect24" /><rect
   x="187.8"
   y="111.5"
   class="st3"
   width="122.1"
   height="40.400002"
   id="rect26" /><g
   id="g42">
			<rect
   x="200.60001"
   y="46.099998"
   class="st5"
   width="97.599998"
   height="43.400002"
   id="rect28" />
			<circle
   class="st3"
   cx="248.5"
   cy="58.5"
   r="7.8000002"
   id="circle30" />
			<polygon
   class="st6"
   points="274,63.2 254.6,79.5 236.4,65.6 219.2,79.4 200.6,67.6 200.6,89.5 298.1,89.5 "
   id="polygon32" />
			<g
   class="st7"
   id="g36">
				<polygon
   class="st8"
   points="253.2,78.4 240.5,89.5 243.4,89.5 254.7,79.6 "
   id="polygon34" />
			</g>
			<g
   class="st7"
   id="g40">
				<polygon
   class="st8"
   points="217.9,78.5 205.2,89.5 207.9,89.5 219.5,79.4 "
   id="polygon38" />
			</g>
		</g><path
   class="st9"
   d="m 248.6,104.8 h -47 c -0.2,0 -0.4,-0.2 -0.4,-0.4 v -5.9 c 0,-0.2 0.2,-0.4 0.4,-0.4 h 47 c 0.2,0 0.4,0.2 0.4,0.4 v 5.9 c 0,0.2 -0.1,0.4 -0.4,0.4 z"
   id="path44" /><path
   class="st9"
   d="m 260.1,133.4 h -58.5 c -0.2,0 -0.4,-0.2 -0.4,-0.4 v -5.9 c 0,-0.2 0.2,-0.4 0.4,-0.4 h 58.5 c 0.2,0 0.4,0.2 0.4,0.4 v 5.9 c 0.1,0.2 -0.1,0.4 -0.4,0.4 z"
   id="path46" /><path
   class="st10"
   d="m 286.6,120.8 h -85 c -0.2,0 -0.4,-0.2 -0.4,-0.4 v -9.8 c 0,-0.2 0.2,-0.4 0.4,-0.4 h 85 c 0.2,0 0.4,0.2 0.4,0.4 v 9.8 c 0,0.2 -0.2,0.4 -0.4,0.4 z"
   id="path48" /><path
   class="st11"
   d="m 271.6,117.4 h -67 c -0.2,0 -0.4,-0.2 -0.4,-0.4 v -3.1 c 0,-0.2 0.2,-0.4 0.4,-0.4 h 67 c 0.2,0 0.4,0.2 0.4,0.4 v 3.1 c 0,0.2 -0.2,0.4 -0.4,0.4 z"
   id="path50" /><path
   class="st3"
   d="m 283.5,114.3 -2.5,2.5 -0.5,0.5 c -0.1,0.1 -0.3,0.1 -0.5,0 l -0.5,-0.5 -1.3,-1.3 c -0.1,-0.1 -0.1,-0.3 0,-0.5 l 0.5,-0.5 c 0.1,-0.1 0.3,-0.1 0.5,0 l 1,1 2.3,-2.3 c 0.1,-0.1 0.3,-0.1 0.5,0 l 0.5,0.5 c 0.1,0.3 0.1,0.5 0,0.6 z"
   id="path52" /><g
   id="g56"
   style="fill:#aa0000">
			<circle
   class="st1"
   cx="221.89999"
   cy="184.2"
   r="22.700001"
   id="circle54"
   style="fill:#aa0000" />
		</g><g
   id="g60"
   style="fill:#aa0000">
			<circle
   class="st1"
   cx="273.29999"
   cy="184.2"
   r="22.700001"
   id="circle58"
   style="fill:#aa0000" />
		</g><polygon
   class="st3"
   points="212.4,184.3 212.4,184.3 212.4,184.3 225.2,197.1 229.2,193.2 220.3,184.3 229.2,175.4 225.2,171.4 "
   id="polygon62" /><polygon
   class="st3"
   points="283.1,184.3 283.1,184.3 283.1,184.3 270.3,171.4 266.3,175.4 275.2,184.3 266.3,193.2 270.3,197.1 "
   id="polygon64" />
</g>
</svg>
